<svg width="400" height="300" viewBox="0 0 400 300" xmlns="http://www.w3.org/2000/svg">
  <!-- Background -->
  <rect width="400" height="300" fill="#f8f9fa" stroke="#dee2e6" stroke-width="2"/>
  
  <!-- Title -->
  <text x="200" y="25" text-anchor="middle" font-family="Arial, sans-serif" font-size="16" font-weight="bold" fill="#212529">Palenplan Voorbeeld</text>
  
  <!-- Building outline -->
  <rect x="50" y="50" width="300" height="200" fill="none" stroke="#495057" stroke-width="2" stroke-dasharray="5,5"/>
  
  <!-- Pile locations -->
  <circle cx="80" cy="80" r="8" fill="#dc3545" stroke="#000" stroke-width="1"/>
  <circle cx="140" cy="80" r="8" fill="#dc3545" stroke="#000" stroke-width="1"/>
  <circle cx="200" cy="80" r="8" fill="#dc3545" stroke="#000" stroke-width="1"/>
  <circle cx="260" cy="80" r="8" fill="#dc3545" stroke="#000" stroke-width="1"/>
  <circle cx="320" cy="80" r="8" fill="#dc3545" stroke="#000" stroke-width="1"/>
  
  <circle cx="80" cy="140" r="8" fill="#dc3545" stroke="#000" stroke-width="1"/>
  <circle cx="140" cy="140" r="8" fill="#dc3545" stroke="#000" stroke-width="1"/>
  <circle cx="200" cy="140" r="8" fill="#dc3545" stroke="#000" stroke-width="1"/>
  <circle cx="260" cy="140" r="8" fill="#dc3545" stroke="#000" stroke-width="1"/>
  <circle cx="320" cy="140" r="8" fill="#dc3545" stroke="#000" stroke-width="1"/>
  
  <circle cx="80" cy="200" r="8" fill="#dc3545" stroke="#000" stroke-width="1"/>
  <circle cx="140" cy="200" r="8" fill="#dc3545" stroke="#000" stroke-width="1"/>
  <circle cx="200" cy="200" r="8" fill="#dc3545" stroke="#000" stroke-width="1"/>
  <circle cx="260" cy="200" r="8" fill="#dc3545" stroke="#000" stroke-width="1"/>
  <circle cx="320" cy="200" r="8" fill="#dc3545" stroke="#000" stroke-width="1"/>
  
  <!-- Pile numbers -->
  <text x="80" y="85" text-anchor="middle" font-family="Arial, sans-serif" font-size="8" fill="white">P1</text>
  <text x="140" y="85" text-anchor="middle" font-family="Arial, sans-serif" font-size="8" fill="white">P2</text>
  <text x="200" y="85" text-anchor="middle" font-family="Arial, sans-serif" font-size="8" fill="white">P3</text>
  <text x="260" y="85" text-anchor="middle" font-family="Arial, sans-serif" font-size="8" fill="white">P4</text>
  <text x="320" y="85" text-anchor="middle" font-family="Arial, sans-serif" font-size="8" fill="white">P5</text>
  
  <!-- Grid dimensions -->
  <line x1="80" y1="265" x2="140" y2="265" stroke="#007bff" stroke-width="1"/>
  <text x="110" y="280" text-anchor="middle" font-family="Arial, sans-serif" font-size="10" fill="#007bff">6.0 m</text>
  
  <!-- Legend -->
  <rect x="360" y="60" width="35" height="60" fill="white" stroke="#000" stroke-width="1"/>
  <circle cx="370" cy="75" r="5" fill="#dc3545" stroke="#000" stroke-width="1"/>
  <text x="375" y="79" font-family="Arial, sans-serif" font-size="8" fill="#000">Paal</text>
  <text x="365" y="95" font-family="Arial, sans-serif" font-size="7" fill="#000">Ø400mm</text>
  <text x="365" y="105" font-family="Arial, sans-serif" font-size="7" fill="#000">L=18m</text>
  <text x="365" y="115" font-family="Arial, sans-serif" font-size="7" fill="#000">Beton</text>
</svg> 