<svg width="270" height="79" viewBox="0 0 270 79" fill="none" xmlns="http://www.w3.org/2000/svg">
<path d="M104.085 26.3237C102.783 26.3439 101.489 26.1071 100.278 25.6268C99.067 25.1466 97.9624 24.4323 97.0273 23.5248C96.0922 22.6172 95.3449 21.5342 94.8281 20.3376C94.3112 19.141 94.035 17.8542 94.0151 16.5508V16.1612C93.9836 14.8577 94.2091 13.5607 94.6786 12.3445C95.1482 11.1282 95.8526 10.0164 96.7516 9.07264C97.6506 8.12889 98.7266 7.37167 99.9181 6.84423C101.11 6.31679 102.393 6.02948 103.696 5.99871H104.085C106.325 5.95691 108.505 6.71735 110.234 8.14288C111.962 9.56841 113.125 11.5652 113.512 13.773H109.281C108.94 12.6654 108.249 11.6983 107.313 11.0172C106.376 10.336 105.243 9.97768 104.085 9.99596C103.314 10.0048 102.552 10.1656 101.843 10.4692C101.134 10.7727 100.491 11.2131 99.9522 11.7652C99.4131 12.3172 98.988 12.9702 98.7011 13.6867C98.4142 14.4031 98.2711 15.1692 98.2801 15.941V16.1612C98.2064 17.7103 98.7493 19.2255 99.7898 20.3747C100.83 21.524 102.284 22.2137 103.831 22.2926H104.085C105.286 22.313 106.459 21.9255 107.411 21.1935C108.364 20.4614 109.041 19.4279 109.332 18.2615H113.58C113.24 20.5276 112.09 22.5936 110.345 24.0761C108.599 25.5587 106.375 26.3573 104.085 26.3237Z" fill="#2B3B55"/>
<path d="M125.651 19.2409H122.943V25.8973H118.712V6.38533H126.582C127.426 6.33735 128.271 6.4568 129.069 6.73681C129.867 7.01682 130.601 7.45187 131.23 8.01694C131.86 8.58202 132.371 9.26597 132.735 10.0295C133.099 10.793 133.309 11.621 133.352 12.4659C133.36 12.59 133.36 12.7144 133.352 12.8385C133.369 14.0265 133.042 15.194 132.412 16.2006C131.781 17.2072 130.874 18.0101 129.798 18.5126L134.114 25.8973H129.392L125.651 19.2409ZM122.943 15.3283H126.328C127.002 15.3283 127.647 15.0607 128.123 14.5842C128.6 14.1077 128.867 13.4615 128.867 12.7877C128.867 12.1139 128.6 11.4677 128.123 10.9912C127.647 10.5148 127.002 10.2471 126.328 10.2471H122.943V15.3283Z" fill="#2B3B55"/>
<path d="M151.242 22.0171V25.9466H139.225V6.38379H150.937V10.2794H143.457V14.1412H150.226V17.9521H143.457V22.0171H151.242Z" fill="#2B3B55"/>
<path d="M168.497 22.1865H160.729L159.392 25.8958H154.924L162.557 6.38379H166.636L174.522 25.8958H169.851L168.497 22.1865ZM162.049 18.511H167.126L164.605 11.5328L162.049 18.511Z" fill="#2B3B55"/>
<path d="M190.575 10.2964H185.244V25.8958H181.013V10.2964H175.597V6.38379H190.66L190.575 10.2964Z" fill="#2B3B55"/>
<path d="M195.495 6.38379H199.71V25.8958H195.495V6.38379Z" fill="#2B3B55"/>
<path d="M223.255 6.38379L215.876 25.8958H211.899L204.283 6.38379H208.937L213.862 20.1709L218.652 6.38379H223.255Z" fill="#2B3B55"/>
<path d="M239.951 22.0171V25.9466H227.935V6.38379H239.647V10.2794H232.149V14.1412H238.919V17.9521H232.149V22.0171H239.951Z" fill="#2B3B55"/>
<path d="M104.085 51.3071C102.785 51.3295 101.493 51.0954 100.283 50.6181C99.0734 50.1408 97.9694 49.4296 97.0342 48.5252C96.0991 47.6208 95.3512 46.5409 94.8332 45.3472C94.3151 44.1535 94.0372 42.8693 94.0151 41.568V41.1446C93.9836 39.8411 94.2091 38.5441 94.6786 37.3279C95.1482 36.1116 95.8526 34.9998 96.7516 34.056C97.6506 33.1123 98.7266 32.3551 99.9181 31.8276C101.11 31.3002 102.393 31.0129 103.696 30.9821H104.085C106.325 30.9403 108.505 31.7008 110.234 33.1263C111.962 34.5518 113.125 36.5486 113.512 38.7564H109.281C108.934 37.6551 108.241 36.6955 107.304 36.0208C106.368 35.3462 105.239 34.9928 104.085 35.0132C103.314 35.0221 102.552 35.1829 101.843 35.4864C101.134 35.79 100.491 36.2304 99.9522 36.7824C99.4131 37.3345 98.988 37.9874 98.7011 38.7039C98.4142 39.4204 98.2711 40.1865 98.2801 40.9583V41.1785C98.2064 42.7276 98.7493 44.2428 99.7898 45.392C100.83 46.5413 102.284 47.2309 103.831 47.3099H104.085C105.286 47.3302 106.459 46.9428 107.411 46.2108C108.364 45.4787 109.041 44.4452 109.332 43.2787H113.58C113.24 45.5449 112.09 47.6109 110.345 49.0934C108.599 50.576 106.375 51.3745 104.085 51.341V51.3071Z" fill="#2B3B55"/>
<path d="M118.712 31.3662H122.943V50.8105H118.712V31.3662Z" fill="#2B3B55"/>
<path d="M142.935 35.2788H137.519V50.8105H133.305V35.2788H127.889V31.3662H142.935V35.2788Z" fill="#2B3B55"/>
<path d="M157.251 43.0023V50.8105H152.919V42.9684L146.149 31.3662H150.634L155.153 39.1744L159.655 31.3662H164.14L157.251 43.0023Z" fill="#2B3B55"/>
<path d="M94.053 69.5539H98.3011C98.3276 70.3237 98.6576 71.0516 99.219 71.5785C99.7803 72.1054 100.527 72.3884 101.297 72.3655H101.584C103.175 72.3655 104.732 71.5187 104.732 70.079C104.732 68.6393 102.938 68.1481 100.84 67.64C97.8949 66.9286 94.3238 66.0648 94.3238 61.8643C94.3238 58.1211 97.0825 56.0039 101.398 56.0039C105.714 56.0039 108.422 58.409 108.422 62.2877H104.258C104.258 60.594 102.871 59.8318 101.297 59.8318C99.7227 59.8318 98.538 60.4077 98.538 61.678C98.538 62.9483 100.23 63.4733 102.295 63.9645C105.274 64.7267 109.065 65.6583 109.065 70.0282C109.065 74.398 105.697 76.2273 101.618 76.2273C97.1333 76.2273 94.053 73.7544 94.053 69.5539Z" fill="#2B3B55"/>
<path d="M113.335 66.0578C113.289 64.0017 113.853 61.978 114.956 60.2426C116.059 58.5072 117.651 57.138 119.531 56.3081C121.411 55.4782 123.495 55.2249 125.519 55.5802C127.544 55.9355 129.417 56.8834 130.903 58.3041C132.389 59.7248 133.42 61.5545 133.867 63.562C134.314 65.5694 134.156 67.6643 133.414 69.5819C132.671 71.4995 131.377 73.1537 129.695 74.3353C128.013 75.5169 126.018 76.1729 123.964 76.2203H123.744C122.424 76.2679 121.107 76.0545 119.869 75.5923C118.631 75.1302 117.496 74.4283 116.529 73.527C115.563 72.6256 114.783 71.5424 114.235 70.3392C113.687 69.1361 113.381 67.8366 113.335 66.5151V66.0578ZM129.837 66.0578C129.82 64.8515 129.447 63.6771 128.765 62.6825C128.083 61.6878 127.122 60.9173 126.003 60.468C124.884 60.0187 123.658 59.9106 122.478 60.1574C121.298 60.4042 120.217 60.9948 119.372 61.8548C118.527 62.7149 117.954 63.8061 117.727 64.9909C117.5 66.1757 117.628 67.4012 118.096 68.5133C118.563 69.6253 119.349 70.5741 120.354 71.2403C121.359 71.9064 122.538 72.2602 123.744 72.2569C124.533 72.2681 125.316 72.1237 126.05 71.8318C126.783 71.5399 127.452 71.1064 128.017 70.5559C128.583 70.0054 129.035 69.3488 129.347 68.6235C129.659 67.8982 129.826 67.1185 129.837 66.3288V66.0578Z" fill="#2B3B55"/>
<path d="M151.209 71.949V75.8616H139.548V56.3496H143.763V71.949H151.209Z" fill="#2B3B55"/>
<path d="M155.42 68.5277V56.3496H159.634V68.3244C159.598 68.8299 159.662 69.3376 159.822 69.8183C159.982 70.299 160.236 70.7433 160.568 71.1255C160.901 71.5077 161.306 71.8204 161.759 72.0455C162.213 72.2706 162.707 72.4038 163.212 72.4373C163.717 72.4707 164.224 72.4039 164.704 72.2407C165.183 72.0774 165.626 71.8209 166.006 71.4859C166.386 71.1508 166.696 70.744 166.918 70.2886C167.14 69.8333 167.27 69.3384 167.301 68.8325C167.318 68.6636 167.318 68.4934 167.301 68.3244V56.3496H171.532V68.5277C171.532 70.6659 170.683 72.7166 169.172 74.2285C167.662 75.7405 165.613 76.5899 163.476 76.5899C161.339 76.5899 159.29 75.7405 157.78 74.2285C156.269 72.7166 155.42 70.6659 155.42 68.5277Z" fill="#2B3B55"/>
<path d="M191.336 60.2622H185.903V75.8616H181.689V60.2622H176.256V56.3496H191.336V60.2622Z" fill="#2B3B55"/>
<path d="M196.246 56.3496H200.477V75.8616H196.246V56.3496Z" fill="#2B3B55"/>
<path d="M205.896 66.0578C205.849 64.0017 206.413 61.978 207.516 60.2426C208.619 58.5072 210.211 57.138 212.091 56.3081C213.972 55.4782 216.056 55.2249 218.08 55.5802C220.104 55.9355 221.977 56.8834 223.463 58.3041C224.949 59.7248 225.981 61.5545 226.427 63.562C226.874 65.5694 226.716 67.6643 225.974 69.5819C225.231 71.4995 223.937 73.1537 222.255 74.3353C220.573 75.5169 218.579 76.1729 216.524 76.2203H216.304C214.984 76.2679 213.667 76.0545 212.429 75.5923C211.191 75.1302 210.056 74.4283 209.09 73.527C208.123 72.6256 207.343 71.5424 206.795 70.3392C206.247 69.1361 205.942 67.8366 205.896 66.5151V66.0578ZM222.38 66.0578C222.407 65.2703 222.279 64.4852 222.003 63.7473C221.726 63.0095 221.307 62.3333 220.77 61.7576C220.232 61.1819 219.587 60.7178 218.87 60.392C218.153 60.0662 217.379 59.8849 216.592 59.8587H216.304C214.661 59.8587 213.086 60.5118 211.924 61.6744C210.762 62.8369 210.11 64.4137 210.11 66.0578C210.11 67.7019 210.762 69.2787 211.924 70.4413C213.086 71.6038 214.661 72.2569 216.304 72.2569C217.091 72.2681 217.872 72.1241 218.603 71.8331C219.335 71.5421 220.001 71.1098 220.565 70.5609C221.13 70.0119 221.58 69.3572 221.892 68.6339C222.203 67.9107 222.369 67.1332 222.38 66.3458V66.0578Z" fill="#2B3B55"/>
<path d="M248.557 56.3496V75.8616H245.037L236.202 63.6666V75.8616H232.056V56.3496H235.881L244.427 68.2059V56.3496H248.557Z" fill="#2B3B55"/>
<path d="M254.019 69.5539H258.267C258.293 70.3237 258.623 71.0516 259.185 71.5785C259.746 72.1054 260.493 72.3884 261.262 72.3655H261.55C263.141 72.3655 264.698 71.5187 264.698 70.079C264.698 68.6393 263.005 68.1481 260.805 67.64C257.86 66.9286 254.289 66.0648 254.289 61.8643C254.289 58.1211 257.048 56.0039 261.364 56.0039C265.679 56.0039 268.387 58.409 268.387 62.2877H264.224C264.224 60.594 262.836 59.8318 261.262 59.8318C259.688 59.8318 258.504 60.4077 258.504 61.678C258.504 62.9483 260.196 63.4733 262.261 63.9645C265.239 64.7267 269.03 65.6583 269.03 70.0282C269.03 74.398 265.646 76.2781 261.635 76.2781C257.099 76.2273 254.019 73.7544 254.019 69.5539Z" fill="#2B3B55"/>
<path d="M17.1167 69.7353L0.767822 63.4854V68.0585L15.6105 73.7325C16.1191 73.9356 16.6462 74.0887 17.1844 74.1899V78.763C17.8847 78.9181 18.5996 78.9976 19.3169 79.0001C20.0331 78.9948 20.7472 78.9211 21.4494 78.7799V74.1899C21.9887 74.0711 22.5201 73.9183 23.0402 73.7325L37.866 68.0585V63.4854L21.5171 69.7353C20.1003 70.2774 18.5335 70.2774 17.1167 69.7353Z" fill="#45C195"/>
<path d="M17.1167 60.5901L0.767822 54.3232V58.9133L15.6105 64.5704C17.9981 65.5097 20.6526 65.5097 23.0402 64.5704L37.866 58.9133V54.3232L21.5171 60.5901C20.1003 61.1323 18.5335 61.1323 17.1167 60.5901Z" fill="#45C195"/>
<path d="M17.1167 51.4228L0.767822 45.1729V49.746L15.6105 55.42C17.9981 56.3593 20.6526 56.3593 23.0402 55.42L37.866 49.746V45.1729L21.5171 51.4228C20.1003 51.9649 18.5335 51.9649 17.1167 51.4228Z" fill="#45C195"/>
<path d="M17.1167 42.3392L0.767822 36.0215V40.6454L15.6105 46.3195C18.0059 47.217 20.6448 47.217 23.0402 46.3195L37.866 40.6454V36.0723L21.5171 42.3392C20.1003 42.8813 18.5335 42.8813 17.1167 42.3392Z" fill="#45C195"/>
<path d="M19.3819 19.498C20.6551 19.4971 21.9172 19.2617 23.1053 18.8036L29.198 16.4831C27.7366 15.3778 26.1451 14.4563 24.4592 13.7393L21.6329 14.8063C20.2161 15.3485 18.6493 15.3485 17.2325 14.8063L14.3046 13.7393C12.5978 14.446 10.9882 15.3681 9.51503 16.4831L15.5909 18.8036C16.8024 19.2618 18.0867 19.497 19.3819 19.498Z" fill="#45C195"/>
<path d="M19.3892 37.803C20.6624 37.8022 21.9245 37.5668 23.1125 37.1086L37.8536 31.4684C37.6803 30.0358 37.3686 28.6234 36.9228 27.251L21.5894 33.1113C20.1726 33.6535 18.6058 33.6535 17.189 33.1113L1.95713 27.251C1.49791 28.6206 1.18033 30.0339 1.00937 31.4684L15.7505 37.1086C16.9137 37.5504 18.1451 37.7855 19.3892 37.803Z" fill="#45C195"/>
<path d="M19.3764 28.6474C20.6486 28.6523 21.9107 28.4227 23.0998 27.9699L35.1837 23.346C34.4586 22.0625 33.6083 20.854 32.6451 19.7383L21.5766 23.9727C20.1598 24.5148 18.593 24.5148 17.1762 23.9727L6.10772 19.7383C5.14444 20.8501 4.29932 22.0592 3.586 23.346L15.653 27.9699C16.8421 28.4227 18.1042 28.6523 19.3764 28.6474Z" fill="#45C195"/>
<path d="M56.4357 14.9062C57.7024 14.911 58.959 14.6813 60.1421 14.2287L72.2261 9.60476C71.501 8.32536 70.6567 7.11743 69.7044 5.99707L58.6189 10.1637C57.2081 10.7063 55.6464 10.7063 54.2355 10.1637L43.0824 5.99707C42.1191 7.10889 41.274 8.31795 40.5607 9.60476L52.7124 14.2287C53.9014 14.6814 55.1635 14.9111 56.4357 14.9062Z" fill="#45C195"/>
<path d="M56.428 5.75875C57.6947 5.76353 58.9513 5.53383 60.1345 5.08125L66.2272 2.76081C64.7545 1.64042 63.145 0.712661 61.4376 0L58.6113 1.084C57.2004 1.62661 55.6387 1.62661 54.2279 1.084L51.4015 0C49.6947 0.706699 48.0851 1.62879 46.6119 2.74388L52.7047 5.08125C53.8937 5.534 55.1559 5.76367 56.428 5.75875Z" fill="#45C195"/>
<path d="M56.4299 24.0709C57.6975 24.0699 58.9541 23.8345 60.1363 23.3765L74.8774 17.7532C74.7023 16.3265 74.3905 14.9198 73.9466 13.5527L58.6131 19.4131C57.2023 19.9557 55.6406 19.9557 54.2297 19.4131L38.8963 13.5527C38.4542 14.93 38.1536 16.3488 37.9993 17.7871L52.7573 23.4104C53.9335 23.8435 55.1765 24.0671 56.4299 24.0709Z" fill="#45C195"/>
<path d="M58.614 28.5361C57.2031 29.0787 55.6414 29.0787 54.2306 28.5361L37.8647 22.2861V26.8593L52.7074 32.5333C55.1028 33.4309 57.7418 33.4309 60.1372 32.5333L74.9798 26.8593V22.2861L58.614 28.5361Z" fill="#45C195"/>
<path d="M54.2306 37.6995L37.8647 31.4326V36.0227L52.7074 41.6798C55.095 42.6191 57.7495 42.6191 60.1372 41.6798L74.9798 36.0227V31.4326L58.614 37.6995C57.2031 38.2421 55.6414 38.2421 54.2306 37.6995Z" fill="#45C195"/>
<path d="M52.7074 50.8129C55.1028 51.7105 57.7418 51.7105 60.1372 50.8129L74.9798 45.1388V40.6504L58.614 46.9003C57.2031 47.4429 55.6414 47.4429 54.2306 46.9003L37.8647 40.6504V45.2235L52.7074 50.8129Z" fill="#45C195"/>
<path d="M52.7074 59.9933C53.216 60.1963 53.7431 60.3495 54.2813 60.4506V65.0407C55.6941 65.3286 57.1504 65.3286 58.5632 65.0407V60.4506C59.1014 60.3495 59.6285 60.1963 60.1372 59.9933L74.9798 54.3192V49.7461L58.614 55.996C57.2063 56.5553 55.6383 56.5553 54.2306 55.996L37.8647 49.7461V54.3192L52.7074 59.9933Z" fill="#45C195"/>
</svg>
