<svg xmlns="http://www.w3.org/2000/svg" viewBox="0 0 43.85 46.64"><defs><style>.cls-1{fill:#06bf6c;}</style></defs><g id="Layer_2" data-name="Layer 2"><g id="Layer_1-2" data-name="Layer 1"><path class="cls-1" d="M9.66,41.17,0,37.48v2.7l8.77,3.35a5,5,0,0,0,.93.27v2.7a5.93,5.93,0,0,0,1.26.14,6.65,6.65,0,0,0,1.26-.13V43.8a7.75,7.75,0,0,0,.94-.27l8.76-3.35v-2.7l-9.66,3.69A3.64,3.64,0,0,1,9.66,41.17Z"/><path class="cls-1" d="M9.66,35.77,0,32.07v2.71l8.77,3.34a6,6,0,0,0,4.39,0l8.76-3.34V32.07l-9.66,3.7A3.64,3.64,0,0,1,9.66,35.77Z"/><path class="cls-1" d="M9.66,30.36,0,26.67v2.7l8.77,3.35a6,6,0,0,0,4.39,0l8.76-3.35v-2.7l-9.66,3.69A3.64,3.64,0,0,1,9.66,30.36Z"/><path class="cls-1" d="M9.66,25,0,21.27V24l8.77,3.35a6.26,6.26,0,0,0,4.39,0L21.92,24V21.3L12.26,25A3.64,3.64,0,0,1,9.66,25Z"/><path class="cls-1" d="M11,11.51a6.13,6.13,0,0,0,2.2-.41l3.6-1.37A13.22,13.22,0,0,0,14,8.11l-1.67.63a3.64,3.64,0,0,1-2.6,0L8,8.11A12.81,12.81,0,0,0,5.17,9.73L8.76,11.1A6.35,6.35,0,0,0,11,11.51Z"/><path class="cls-1" d="M11,22.32a6.13,6.13,0,0,0,2.2-.41l8.71-3.33a13.18,13.18,0,0,0-.55-2.49L12.3,19.55a3.64,3.64,0,0,1-2.6,0l-9-3.46a12.47,12.47,0,0,0-.56,2.49l8.71,3.33A6.31,6.31,0,0,0,11,22.32Z"/><path class="cls-1" d="M11,16.91a6.12,6.12,0,0,0,2.2-.4l7.14-2.73a13.18,13.18,0,0,0-1.5-2.13l-6.54,2.5a3.64,3.64,0,0,1-2.6,0l-6.54-2.5a12.53,12.53,0,0,0-1.49,2.13L8.8,16.51A6.12,6.12,0,0,0,11,16.91Z"/><path class="cls-1" d="M32.89,8.8a6.07,6.07,0,0,0,2.19-.4l7.14-2.73a13.78,13.78,0,0,0-1.49-2.13L34.18,6a3.61,3.61,0,0,1-2.59,0L25,3.54a12.53,12.53,0,0,0-1.49,2.13L30.69,8.4A6.12,6.12,0,0,0,32.89,8.8Z"/><path class="cls-1" d="M32.89,3.4A6.07,6.07,0,0,0,35.08,3l3.6-1.37A12.85,12.85,0,0,0,35.85,0L34.18.64a3.61,3.61,0,0,1-2.59,0L29.92,0a12.81,12.81,0,0,0-2.83,1.62L30.69,3A6.12,6.12,0,0,0,32.89,3.4Z"/><path class="cls-1" d="M32.89,14.21a6.08,6.08,0,0,0,2.19-.41l8.71-3.32A13.25,13.25,0,0,0,43.24,8l-9.06,3.46a3.61,3.61,0,0,1-2.59,0L22.53,8A12.56,12.56,0,0,0,22,10.5l8.72,3.32A6.34,6.34,0,0,0,32.89,14.21Z"/><path class="cls-1" d="M34.18,16.85a3.61,3.61,0,0,1-2.59,0l-9.67-3.69v2.7l8.77,3.35a6.26,6.26,0,0,0,4.39,0l8.77-3.35v-2.7Z"/><path class="cls-1" d="M31.59,22.26l-9.67-3.7v2.71l8.77,3.34a6,6,0,0,0,4.39,0l8.77-3.34V18.56l-9.67,3.7A3.61,3.61,0,0,1,31.59,22.26Z"/><path class="cls-1" d="M30.69,30a6.26,6.26,0,0,0,4.39,0l8.77-3.35V24l-9.67,3.69a3.61,3.61,0,0,1-2.59,0L21.92,24v2.7Z"/><path class="cls-1" d="M30.69,35.42a5,5,0,0,0,.93.27V38.4a6.34,6.34,0,0,0,2.53,0V35.69a5,5,0,0,0,.93-.27l8.77-3.35v-2.7l-9.67,3.69a3.51,3.51,0,0,1-2.59,0l-9.67-3.69v2.7Z"/></g></g></svg>